# xmcd
#
# Track frame offsets:
#	150
#	81013
#	89161
#	114745
#	122618
#	144539
#	188418
#
# Disc length: 4045 seconds
#
# Revision: 1
# Processed by: cddbd v1.5.2PL0 Copyright (c) Steve Scherf et al.
# Submitted via: audiograbber 1.83.01
#
DISCID=590fcb07
DTITLE=Grateful Dead - 69-11-07 Family Dog at the Great Highway, San Francisco 
DTITLE=CA
DYEAR=1900
DGENRE=
TTITLE0=Dark Star
TTITLE1=Uncle John's Jam
TTITLE2=Dark Star
TTITLE3=Cryptical Envelopment
TTITLE4=Drums
TTITLE5=The Other One
TTITLE6=Turn On Your Lovelight
EXTD=
EXTT0=
EXTT1=
EXTT2=
EXTT3=
EXTT4=
EXTT5=
EXTT6=
PLAYORDER=
